<?xml version="1.0" encoding="UTF-8"?>
<!DOCTYPE svg PUBLIC "-//W3C//DTD SVG 1.1//EN" "http://www.w3.org/Graphics/SVG/1.1/DTD/svg11.dtd">
<svg xmlns="http://www.w3.org/2000/svg" version="1.1" width="954px" height="394px" style="shape-rendering:geometricPrecision; text-rendering:geometricPrecision; image-rendering:optimizeQuality; fill-rule:evenodd; clip-rule:evenodd" xmlns:xlink="http://www.w3.org/1999/xlink">
<g><path style="opacity:1" fill="#393737" d="M -0.5,-0.5 C 317.5,-0.5 635.5,-0.5 953.5,-0.5C 953.5,130.833 953.5,262.167 953.5,393.5C 635.5,393.5 317.5,393.5 -0.5,393.5C -0.5,262.167 -0.5,130.833 -0.5,-0.5 Z"/></g>
<g><path style="opacity:1" fill="#f38d1e" d="M 223.5,8.5 C 226.627,9.58075 229.96,10.2474 233.5,10.5C 249.598,14.1981 264.931,19.8647 279.5,27.5C 279.973,28.9063 280.973,29.573 282.5,29.5C 297.965,38.9154 311.965,50.2488 324.5,63.5C 325.08,65.7488 326.413,67.4154 328.5,68.5C 346.617,89.3848 360.117,113.051 369,139.5C 371.622,149.448 373.789,159.448 375.5,169.5C 375.479,176.854 375.813,184.187 376.5,191.5C 376.5,191.833 376.5,192.167 376.5,192.5C 368.833,192.5 361.167,192.5 353.5,192.5C 353.818,187.968 353.485,183.634 352.5,179.5C 351.736,173.674 350.736,168.007 349.5,162.5C 341.844,127.187 324.844,97.1868 298.5,72.5C 297.415,70.4131 295.749,69.0798 293.5,68.5C 267.873,47.728 238.539,35.728 205.5,32.5C 193.498,29.8723 181.498,29.8723 169.5,32.5C 166.615,32.1936 163.948,32.5269 161.5,33.5C 157.655,33.2878 154.321,34.2878 151.5,36.5C 148.848,36.4095 146.515,37.0762 144.5,38.5C 140.838,38.7234 137.505,39.7234 134.5,41.5C 85.5238,64.1405 52.8571,101.14 36.5,152.5C 34.0586,157.081 33.0586,162.081 33.5,167.5C 32.6829,169.969 32.1829,172.635 32,175.5C 29.1211,201.331 31.9545,226.331 40.5,250.5C 40.0181,253.831 41.0181,256.497 43.5,258.5C 60.2244,299.988 88.7244,330.322 129,349.5C 134.833,351.581 140.666,353.581 146.5,355.5C 148.905,356.768 151.572,357.435 154.5,357.5C 160.583,359.294 166.916,360.461 173.5,361C 186.162,361.5 198.829,361.667 211.5,361.5C 216.453,361.877 221.119,361.211 225.5,359.5C 233.548,356.486 241.881,353.82 250.5,351.5C 252.153,351.34 253.486,350.674 254.5,349.5C 281.095,337.087 303.095,318.92 320.5,295C 321.448,294.517 322.448,294.351 323.5,294.5C 323.833,295.5 324.5,296.167 325.5,296.5C 325.973,297.906 326.973,298.573 328.5,298.5C 332.167,302.5 335.833,306.5 339.5,310.5C 315.743,344.041 284.409,367.375 245.5,380.5C 242.572,380.565 239.905,381.232 237.5,382.5C 218.224,387.136 198.557,388.636 178.5,387C 173.166,386.433 167.833,385.933 162.5,385.5C 162.389,384.883 162.056,384.383 161.5,384C 159.527,383.505 157.527,383.338 155.5,383.5C 94.958,370.51 51.458,336.177 25,280.5C 10.6968,245.989 4.86347,209.989 7.5,172.5C 8.86152,168.023 9.86152,163.357 10.5,158.5C 10.5488,154.922 11.2154,151.589 12.5,148.5C 14.1628,146.562 14.8294,144.228 14.5,141.5C 19.2425,125.591 25.9092,110.591 34.5,96.5C 35.9063,96.0269 36.573,95.0269 36.5,93.5C 54.8284,63.1685 79.8284,40.1685 111.5,24.5C 113.027,24.573 114.027,23.9063 114.5,22.5C 149.315,6.14992 185.648,1.48325 223.5,8.5 Z"/></g>
<g><path style="opacity:1" fill="#6c4e30" d="M 223.5,8.5 C 226.187,8.33591 228.854,8.50258 231.5,9C 232.416,9.27842 233.082,9.77842 233.5,10.5C 229.96,10.2474 226.627,9.58075 223.5,8.5 Z"/></g>
<g><path style="opacity:1" fill="#a4682a" d="M 114.5,22.5 C 114.027,23.9063 113.027,24.573 111.5,24.5C 111.973,23.0937 112.973,22.427 114.5,22.5 Z"/></g>
<g><path style="opacity:1" fill="#7e572e" d="M 279.5,27.5 C 281.027,27.427 282.027,28.0937 282.5,29.5C 280.973,29.573 279.973,28.9063 279.5,27.5 Z"/></g>
<g><path style="opacity:1" fill="#634a31" d="M 205.5,32.5 C 193.5,32.5 181.5,32.5 169.5,32.5C 181.498,29.8723 193.498,29.8723 205.5,32.5 Z"/></g>
<g><path style="opacity:1" fill="#7d562f" d="M 161.5,33.5 C 158.358,34.7903 155.025,35.7903 151.5,36.5C 154.321,34.2878 157.655,33.2878 161.5,33.5 Z"/></g>
<g><path style="opacity:1" fill="#0167b1" d="M 344.5,163.5 C 344.532,168.391 345.199,173.057 346.5,177.5C 346.5,182.5 346.5,187.5 346.5,192.5C 333.323,192.171 320.323,192.505 307.5,193.5C 280.833,193.5 254.167,193.5 227.5,193.5C 227.169,220.339 227.502,247.005 228.5,273.5C 228.5,285.5 228.5,297.5 228.5,309.5C 219.167,309.5 209.833,309.5 200.5,309.5C 200.187,264.143 200.52,218.81 201.5,173.5C 203.899,167.794 208.232,164.794 214.5,164.5C 249.164,163.952 283.831,163.618 318.5,163.5C 318.784,161.585 318.451,159.919 317.5,158.5C 300.623,110.959 267.623,81.2919 218.5,69.5C 214.1,67.8958 209.434,67.2291 204.5,67.5C 148.609,63.3637 106.109,85.3637 77,133.5C 68.272,149.411 63.1053,166.411 61.5,184.5C 59.6127,200.411 60.9461,216.078 65.5,231.5C 89.3316,298.613 136.998,330.279 208.5,326.5C 232.905,323.093 254.571,313.593 273.5,298C 281.976,289.856 290.142,281.356 298,272.5C 298.667,271.167 298.667,269.833 298,268.5C 285.663,256.349 273.83,244.016 262.5,231.5C 299.996,230.502 337.663,230.168 375.5,230.5C 376.161,268.515 375.494,306.181 373.5,343.5C 362.167,332.5 350.833,321.5 339.5,310.5C 335.833,306.5 332.167,302.5 328.5,298.5C 328.027,297.094 327.027,296.427 325.5,296.5C 324.5,296.167 323.833,295.5 323.5,294.5C 322.121,291.927 320.121,290.427 317.5,290C 289.301,328.934 251.301,351.1 203.5,356.5C 192.825,356.377 182.159,356.043 171.5,355.5C 113.178,344.989 72.1783,312.489 48.5,258C 37.3097,227.806 34.3097,196.973 39.5,165.5C 41.1015,161.079 42.1015,156.412 42.5,151.5C 56.7791,105.702 85.4458,71.869 128.5,50C 134.571,47.7014 140.571,45.5347 146.5,43.5C 149.495,43.7062 152.162,43.0395 154.5,41.5C 223.442,27.9691 278.608,49.3024 320,105.5C 331.409,123.589 339.576,142.922 344.5,163.5 Z"/></g>
<g><path style="opacity:1" fill="#755330" d="M 144.5,38.5 C 141.495,40.2766 138.162,41.2766 134.5,41.5C 137.505,39.7234 140.838,38.7234 144.5,38.5 Z"/></g>
<g><path style="opacity:1" fill="#234c6d" d="M 154.5,41.5 C 152.162,43.0395 149.495,43.7062 146.5,43.5C 148.905,42.2318 151.572,41.5651 154.5,41.5 Z"/></g>
<g><path style="opacity:1" fill="#b67028" d="M 324.5,63.5 C 326.587,64.5846 327.92,66.2512 328.5,68.5C 326.413,67.4154 325.08,65.7488 324.5,63.5 Z"/></g>
<g><path style="opacity:1" fill="#284760" d="M 204.5,67.5 C 209.434,67.2291 214.1,67.8958 218.5,69.5C 213.609,69.4681 208.943,68.8015 204.5,67.5 Z"/></g>
<g><path style="opacity:1" fill="#b97227" d="M 293.5,68.5 C 295.749,69.0798 297.415,70.4131 298.5,72.5C 296.251,71.9202 294.585,70.5869 293.5,68.5 Z"/></g>
<g><path style="opacity:1" fill="#a1672a" d="M 36.5,93.5 C 36.573,95.0269 35.9063,96.0269 34.5,96.5C 34.427,94.9731 35.0937,93.9731 36.5,93.5 Z"/></g>
<g><path style="opacity:1" fill="#1f5078" d="M 198.5,96.5 C 193.077,96.5237 187.743,97.1903 182.5,98.5C 187.623,95.7092 192.956,95.0426 198.5,96.5 Z"/></g>
<g><path style="opacity:1" fill="#0167b1" d="M 198.5,96.5 C 209.526,98.6634 216.86,104.997 220.5,115.5C 220.963,122.98 220.297,130.314 218.5,137.5C 209.971,151.448 197.971,155.614 182.5,150C 170.234,142.632 165.067,131.798 167,117.5C 169.347,108.774 174.514,102.441 182.5,98.5C 187.743,97.1903 193.077,96.5237 198.5,96.5 Z"/></g>
<g><path style="opacity:1" fill="#e4e3e3" d="M 848.5,104.5 C 850.335,105.122 851.502,106.456 852,108.5C 853.935,119.13 850.102,126.963 840.5,132C 837.326,133.725 833.993,135.058 830.5,136C 816.332,137.806 802.165,138.973 788,139.5C 780.333,177.833 772.667,216.167 765,254.5C 764.223,259.222 764.39,263.889 765.5,268.5C 759.021,272.37 752.021,274.203 744.5,274C 742.484,272.972 741.484,271.305 741.5,269C 749.657,225.705 758.324,182.538 767.5,139.5C 749.327,137.705 731.327,138.705 713.5,142.5C 714.028,134.594 717.695,128.761 724.5,125C 756.137,123.72 787.803,123.053 819.5,123C 832.785,122.167 842.452,116.001 848.5,104.5 Z"/></g>
<g><path style="opacity:1" fill="#e3e2e2" d="M 890.5,253.5 C 889.566,254.568 889.232,255.901 889.5,257.5C 891.415,257.784 893.081,257.451 894.5,256.5C 903.489,255.667 912.489,255.501 921.5,256C 927.652,259.712 930.319,265.212 929.5,272.5C 923.719,271.454 917.886,270.787 912,270.5C 895.491,272.239 878.991,274.073 862.5,276C 856.245,277.127 850.245,276.46 844.5,274C 840.573,269.457 839.24,264.29 840.5,258.5C 841.912,259.806 843.579,260.64 845.5,261C 853.195,261.691 860.861,261.525 868.5,260.5C 876.024,219.05 883.857,177.717 892,136.5C 884.291,138.28 876.458,138.78 868.5,138C 862.371,134.577 859.871,129.41 861,122.5C 861.75,123.126 862.584,123.626 863.5,124C 880.116,124.431 896.449,122.431 912.5,118C 920.131,116.691 927.797,116.358 935.5,117C 941.995,119.116 945.828,123.616 947,130.5C 947.781,131.944 947.614,133.277 946.5,134.5C 941.726,132.39 936.726,131.39 931.5,131.5C 925.494,132.169 919.494,132.836 913.5,133.5C 906.09,173.548 898.424,213.548 890.5,253.5 Z"/></g>
<g><path style="opacity:1" fill="#e3e2e2" d="M 602.5,199.5 C 603.404,198.791 603.737,197.791 603.5,196.5C 601.265,196.205 599.265,196.539 597.5,197.5C 592.241,197.356 587.407,198.689 583,201.5C 585.087,194.521 589.254,189.021 595.5,185C 599.152,184.501 602.818,184.335 606.5,184.5C 608.858,168.042 611.858,151.708 615.5,135.5C 601.679,134.607 589.512,138.607 579,147.5C 580.718,136.784 586.552,129.284 596.5,125C 623.465,123.72 650.465,123.054 677.5,123C 688.32,121.651 698.986,119.984 709.5,118C 705.833,124.333 700.833,129.333 694.5,133C 691.768,133.413 689.101,134.08 686.5,135C 669.837,135.5 653.17,135.667 636.5,135.5C 633.629,151.856 630.629,168.189 627.5,184.5C 645.8,185.5 663.8,184 681.5,180C 678.046,187.79 672.38,193.123 664.5,196C 651.154,196.167 637.821,196.667 624.5,197.5C 620.114,214.254 617.614,231.254 617,248.5C 620.252,254.553 625.419,257.72 632.5,258C 650.913,259.607 668.58,256.774 685.5,249.5C 684.408,260.108 678.408,266.608 667.5,269C 653.565,271.348 639.565,273.181 625.5,274.5C 616.453,274.885 608.12,272.719 600.5,268C 595.627,263.056 593.293,257.056 593.5,250C 596.084,233.078 599.084,216.245 602.5,199.5 Z"/></g>
<g><path style="opacity:1" fill="#e3e2e2" d="M 518.5,119.5 C 531.326,118.32 543.66,120.153 555.5,125C 568.47,133.985 568.637,143.485 556,153.5C 546.537,133.566 531.037,126.066 509.5,131C 494.256,136.91 482.756,147.077 475,161.5C 460.372,186.833 458.039,213.167 468,240.5C 477.915,256.033 492.082,262.2 510.5,259C 530.222,254.894 546.388,245.061 559,229.5C 561.374,232.801 562.04,236.467 561,240.5C 558.949,245.214 556.115,249.381 552.5,253C 529.675,270.79 504.008,277.123 475.5,272C 455.494,265.661 443.661,252.161 440,231.5C 435.437,185.124 453.271,150.291 493.5,127C 501.625,123.391 509.959,120.891 518.5,119.5 Z"/></g>
<g><path style="opacity:1" fill="#2b4863" d="M 220.5,115.5 C 221.653,121.653 221.82,127.986 221,134.5C 220.623,135.942 219.79,136.942 218.5,137.5C 220.297,130.314 220.963,122.98 220.5,115.5 Z"/></g>
<g><path style="opacity:1" fill="#b87227" d="M 14.5,141.5 C 14.8294,144.228 14.1628,146.562 12.5,148.5C 12.7215,145.933 13.3882,143.599 14.5,141.5 Z"/></g>
<g><path style="opacity:1" fill="#1f5078" d="M 42.5,151.5 C 42.1015,156.412 41.1015,161.079 39.5,165.5C 39.5812,160.523 40.5812,155.857 42.5,151.5 Z"/></g>
<g><path style="opacity:1" fill="#c57826" d="M 36.5,152.5 C 36.1179,157.744 35.1179,162.744 33.5,167.5C 33.0586,162.081 34.0586,157.081 36.5,152.5 Z"/></g>
<g><path style="opacity:1" fill="#6d4f30" d="M 10.5,158.5 C 9.86152,163.357 8.86152,168.023 7.5,172.5C 7.76456,168.147 8.26456,163.813 9,159.5C 9.38258,158.944 9.88258,158.611 10.5,158.5 Z"/></g>
<g><path style="opacity:1" fill="#2a455a" d="M 317.5,158.5 C 318.451,159.919 318.784,161.585 318.5,163.5C 283.831,163.618 249.164,163.952 214.5,164.5C 248.654,162.943 282.988,162.277 317.5,162.5C 317.5,161.167 317.5,159.833 317.5,158.5 Z"/></g>
<g><path style="opacity:1" fill="#155a8f" d="M 174.5,165.5 C 148.5,165.5 122.5,165.5 96.5,165.5C 96.5,174.833 96.5,184.167 96.5,193.5C 117.5,193.5 138.5,193.5 159.5,193.5C 159.831,220.339 159.498,247.005 158.5,273.5C 158.5,260.5 158.5,247.5 158.5,234.5C 158.5,221.167 158.5,207.833 158.5,194.5C 137.5,194.5 116.5,194.5 95.5,194.5C 95.5,184.5 95.5,174.5 95.5,164.5C 122.005,164.169 148.339,164.502 174.5,165.5 Z"/></g>
<g><path style="opacity:1" fill="#0067b2" d="M 174.5,165.5 C 181.762,167.425 185.762,172.091 186.5,179.5C 186.5,222.5 186.5,265.5 186.5,308.5C 177.167,308.5 167.833,308.5 158.5,308.5C 158.5,296.833 158.5,285.167 158.5,273.5C 159.498,247.005 159.831,220.339 159.5,193.5C 138.5,193.5 117.5,193.5 96.5,193.5C 96.5,184.167 96.5,174.833 96.5,165.5C 122.5,165.5 148.5,165.5 174.5,165.5 Z"/></g>
<g><path style="opacity:1" fill="#2a445a" d="M 344.5,163.5 C 345.972,167.919 346.638,172.586 346.5,177.5C 345.199,173.057 344.532,168.391 344.5,163.5 Z"/></g>
<g><path style="opacity:1" fill="#175686" d="M 201.5,173.5 C 200.52,218.81 200.187,264.143 200.5,309.5C 209.833,309.5 219.167,309.5 228.5,309.5C 219.014,310.494 209.348,310.827 199.5,310.5C 199.333,265.832 199.5,221.165 200,176.5C 200.232,175.263 200.732,174.263 201.5,173.5 Z"/></g>
<g><path style="opacity:1" fill="#ba7226" d="M 375.5,169.5 C 377.276,176.796 377.609,184.129 376.5,191.5C 375.813,184.187 375.479,176.854 375.5,169.5 Z"/></g>
<g><path style="opacity:1" fill="#514234" d="M 349.5,162.5 C 350.736,168.007 351.736,173.674 352.5,179.5C 352.5,184.167 352.5,188.833 352.5,193.5C 351.053,183.355 350.053,173.021 349.5,162.5 Z"/></g>
<g><path style="opacity:1" fill="#1c517c" d="M 61.5,184.5 C 61.314,200.305 62.6473,215.972 65.5,231.5C 60.9461,216.078 59.6127,200.411 61.5,184.5 Z"/></g>
<g><path style="opacity:1" fill="#175583" d="M 346.5,177.5 C 347.833,182.833 347.833,188.167 346.5,193.5C 333.5,193.5 320.5,193.5 307.5,193.5C 320.323,192.505 333.323,192.171 346.5,192.5C 346.5,187.5 346.5,182.5 346.5,177.5 Z"/></g>
<g><path style="opacity:1" fill="#bb7325" d="M 352.5,179.5 C 353.485,183.634 353.818,187.968 353.5,192.5C 361.167,192.5 368.833,192.5 376.5,192.5C 368.684,193.492 360.684,193.826 352.5,193.5C 352.5,188.833 352.5,184.167 352.5,179.5 Z"/></g>
<g><path style="opacity:1" fill="#254965" d="M 307.5,193.5 C 320.5,193.5 333.5,193.5 346.5,193.5C 307.337,194.499 268.004,194.832 228.5,194.5C 228.5,220.833 228.5,247.167 228.5,273.5C 227.502,247.005 227.169,220.339 227.5,193.5C 254.167,193.5 280.833,193.5 307.5,193.5 Z"/></g>
<g><path style="opacity:1" fill="#767474" d="M 597.5,197.5 C 599.265,196.539 601.265,196.205 603.5,196.5C 603.737,197.791 603.404,198.791 602.5,199.5C 601.448,197.744 599.781,197.077 597.5,197.5 Z"/></g>
<g><path style="opacity:1" fill="#313e49" d="M 376.5,229.5 C 337.819,228.839 299.485,229.506 261.5,231.5C 260.596,230.791 260.263,229.791 260.5,228.5C 299.337,228.168 338.004,228.501 376.5,229.5 Z"/></g>
<g><path style="opacity:1" fill="#12588c" d="M 376.5,229.5 C 377.161,268.514 376.494,307.181 374.5,345.5C 374.167,344.833 373.833,344.167 373.5,343.5C 375.494,306.181 376.161,268.515 375.5,230.5C 337.663,230.168 299.996,230.502 262.5,231.5C 262.167,231.5 261.833,231.5 261.5,231.5C 299.485,229.506 337.819,228.839 376.5,229.5 Z"/></g>
<g><path style="opacity:1" fill="#2f3e4a" d="M 376.5,229.5 C 377.499,268.33 377.832,307.33 377.5,346.5C 376.209,346.737 375.209,346.404 374.5,345.5C 376.494,307.181 377.161,268.514 376.5,229.5 Z"/></g>
<g><path style="opacity:1" fill="#383738" d="M 349.5,289.5 C 337.5,278.167 325.833,266.5 314.5,254.5C 326.322,253.505 338.322,253.172 350.5,253.5C 350.828,265.678 350.495,277.678 349.5,289.5 Z"/></g>
<g><path style="opacity:1" fill="#bb7227" d="M 40.5,250.5 C 41.871,252.936 42.871,255.603 43.5,258.5C 41.0181,256.497 40.0181,253.831 40.5,250.5 Z"/></g>
<g><path style="opacity:1" fill="#303f4a" d="M 349.5,289.5 C 350.495,277.678 350.828,265.678 350.5,253.5C 338.322,253.172 326.322,253.505 314.5,254.5C 313.957,254.44 313.624,254.107 313.5,253.5C 326.149,252.501 338.816,252.168 351.5,252.5C 351.667,265.504 351.5,278.504 351,291.5C 350.283,290.956 349.783,290.289 349.5,289.5 Z"/></g>
<g><path style="opacity:1" fill="#747373" d="M 890.5,253.5 C 890.5,254.5 890.5,255.5 890.5,256.5C 891.833,256.5 893.167,256.5 894.5,256.5C 893.081,257.451 891.415,257.784 889.5,257.5C 889.232,255.901 889.566,254.568 890.5,253.5 Z"/></g>
<g><path style="opacity:1" fill="#68757d" d="M 325.5,296.5 C 327.027,296.427 328.027,297.094 328.5,298.5C 326.973,298.573 325.973,297.906 325.5,296.5 Z"/></g>
<g><path style="opacity:1" fill="#1d5380" d="M 186.5,179.5 C 187.665,222.665 187.831,265.998 187,309.5C 177.25,310.486 167.416,310.819 157.5,310.5C 157.169,284.995 157.502,259.661 158.5,234.5C 158.5,247.5 158.5,260.5 158.5,273.5C 158.5,285.167 158.5,296.833 158.5,308.5C 167.833,308.5 177.167,308.5 186.5,308.5C 186.5,265.5 186.5,222.5 186.5,179.5 Z"/></g>
<g><path style="opacity:1" fill="#915f2c" d="M 254.5,349.5 C 253.486,350.674 252.153,351.34 250.5,351.5C 251.287,349.896 252.62,349.229 254.5,349.5 Z"/></g>
<g><path style="opacity:1" fill="#6a4e30" d="M 146.5,355.5 C 149.495,355.294 152.162,355.96 154.5,357.5C 151.572,357.435 148.905,356.768 146.5,355.5 Z"/></g>
<g><path style="opacity:1" fill="#115a91" d="M 171.5,355.5 C 182.159,356.043 192.825,356.377 203.5,356.5C 192.794,357.862 182.127,357.529 171.5,355.5 Z"/></g>
<g><path style="opacity:1" fill="#c37725" d="M 225.5,359.5 C 221.119,361.211 216.453,361.877 211.5,361.5C 215.98,360.479 220.647,359.813 225.5,359.5 Z"/></g>
<g><path style="opacity:1" fill="#73512f" d="M 245.5,380.5 C 243.162,382.04 240.495,382.706 237.5,382.5C 239.905,381.232 242.572,380.565 245.5,380.5 Z"/></g>
<g><path style="opacity:1" fill="#af6d28" d="M 155.5,383.5 C 157.527,383.338 159.527,383.505 161.5,384C 162.056,384.383 162.389,384.883 162.5,385.5C 159.933,385.279 157.599,384.612 155.5,383.5 Z"/></g>
</svg>
