<?xml version="1.0" encoding="UTF-8"?>
<!DOCTYPE svg PUBLIC "-//W3C//DTD SVG 1.1//EN" "http://www.w3.org/Graphics/SVG/1.1/DTD/svg11.dtd">
<svg xmlns="http://www.w3.org/2000/svg" version="1.1" width="1409px" height="289px" style="shape-rendering:geometricPrecision; text-rendering:geometricPrecision; image-rendering:optimizeQuality; fill-rule:evenodd; clip-rule:evenodd" xmlns:xlink="http://www.w3.org/1999/xlink">
<g><path style="opacity:1" fill="#000000" d="M -0.5,-0.5 C 469.167,-0.5 938.833,-0.5 1408.5,-0.5C 1408.5,95.8333 1408.5,192.167 1408.5,288.5C 938.833,288.5 469.167,288.5 -0.5,288.5C -0.5,192.167 -0.5,95.8333 -0.5,-0.5 Z"/></g>
<g><path style="opacity:1" fill="#f28c1d" d="M 340.5,116.5 C 340.968,124.851 341.635,133.184 342.5,141.5C 337.167,141.5 331.833,141.5 326.5,141.5C 326.81,138.287 326.477,135.287 325.5,132.5C 315.496,71.6628 280.163,35.8295 219.5,25C 181.002,22.172 148.836,35.0053 123,63.5C 87.3192,105.706 81.6526,151.706 106,201.5C 136.731,254.774 182.231,274.607 242.5,261C 267.151,251.669 287.484,236.502 303.5,215.5C 308.167,219.5 312.5,223.833 316.5,228.5C 278.322,277.73 228.989,294.23 168.5,278C 114.586,258.071 83.4197,219.571 75,162.5C 70.2177,103.236 92.3843,57.0689 141.5,24C 176.825,4.76015 213.825,1.09349 252.5,13C 293.128,28.9616 320.961,57.4616 336,98.5C 337.61,104.492 339.11,110.492 340.5,116.5 Z"/></g>
<g><path style="opacity:1" fill="#e4e3e3" d="M 1173.5,7.5 C 1178.45,12.8454 1180.28,19.1787 1179,26.5C 1174.85,40.6937 1165.68,50.1937 1151.5,55C 1146,56.9675 1140.33,58.3008 1134.5,59C 1116.2,60.3512 1097.86,60.8512 1079.5,60.5C 1066.83,124.166 1054.17,187.832 1041.5,251.5C 1041.85,255.063 1042.51,258.563 1043.5,262C 1043.36,262.772 1043.02,263.439 1042.5,264C 1032.74,269.024 1022.41,271.358 1011.5,271C 1010.07,270.535 1008.9,269.701 1008,268.5C 1007.33,264.167 1007.33,259.833 1008,255.5C 1020.9,190.497 1033.73,125.497 1046.5,60.5C 1018.22,59.9181 990.219,62.2514 962.5,67.5C 964.215,59.5169 967.381,52.1836 972,45.5C 977.326,41.055 983.492,38.555 990.5,38C 1035.17,37.6667 1079.83,37.3333 1124.5,37C 1137.62,36.1831 1149.62,32.1831 1160.5,25C 1165.94,19.9393 1170.27,14.106 1173.5,7.5 Z"/></g>
<g><path style="opacity:1" fill="#e4e3e3" d="M 1191.5,43.5 C 1191.03,40.9179 1191.69,38.9179 1193.5,37.5C 1202.35,39.509 1211.35,40.009 1220.5,39C 1243.48,34.7799 1266.48,30.7799 1289.5,27C 1310.21,23.0085 1322.21,31.3418 1325.5,52C 1325.17,52.8333 1324.83,53.6667 1324.5,54.5C 1317.84,51.4174 1310.84,50.084 1303.5,50.5C 1293.48,51.2816 1283.48,52.2816 1273.5,53.5C 1261.29,117.195 1248.96,180.861 1236.5,244.5C 1248.85,243.72 1261.18,242.72 1273.5,241.5C 1284.32,240.159 1291.82,244.493 1296,254.5C 1297.23,259.085 1297.73,263.752 1297.5,268.5C 1288.78,266.639 1279.95,265.639 1271,265.5C 1246.71,267.307 1222.55,270.14 1198.5,274C 1190.5,274.667 1182.5,274.667 1174.5,274C 1170.36,273.349 1166.86,271.515 1164,268.5C 1159.8,261.716 1158.14,254.383 1159,246.5C 1163.52,249.117 1168.35,250.951 1173.5,252C 1183.2,252.22 1192.86,251.72 1202.5,250.5C 1215.04,186.484 1227.7,122.484 1240.5,58.5C 1228.89,60.2194 1217.22,60.7194 1205.5,60C 1197.05,57.7142 1192.38,52.2142 1191.5,43.5 Z"/></g>
<g><path style="opacity:1" fill="#e3e2e2" d="M 787.5,132.5 C 791.329,133.069 794.663,132.402 797.5,130.5C 802.297,105.848 806.964,81.1816 811.5,56.5C 790.249,55.2242 771.415,61.2242 755,74.5C 757.545,61.5824 764.045,51.0824 774.5,43C 778.981,41.0462 783.648,39.7128 788.5,39C 826.153,37.7931 863.82,37.1264 901.5,37C 919.83,36.1673 937.83,33.334 955.5,28.5C 955.833,28.8333 956.167,29.1667 956.5,29.5C 951.764,36.4597 946.431,42.9597 940.5,49C 930.887,54.095 920.554,56.4283 909.5,56C 887.826,56.1669 866.159,56.6669 844.5,57.5C 839.372,82.474 834.372,107.474 829.5,132.5C 847.855,132.749 866.189,132.249 884.5,131C 894.687,129.764 904.52,127.264 914,123.5C 910.505,131.937 905.338,139.437 898.5,146C 891.771,148.718 884.771,150.385 877.5,151C 860.157,151.167 842.824,151.667 825.5,152.5C 820.266,176.005 815.932,199.672 812.5,223.5C 812.37,234.542 817.703,241.375 828.5,244C 860.6,249.105 891.6,245.272 921.5,232.5C 917.18,252.938 904.18,263.771 882.5,265C 863.781,268.191 844.948,270.358 826,271.5C 784.053,271.319 769.053,250.985 781,210.5C 785.028,190.858 788.862,171.191 792.5,151.5C 781.261,150.787 770.761,153.12 761,158.5C 764.081,150.043 768.914,142.543 775.5,136C 779.034,133.323 783.034,132.156 787.5,132.5 Z"/></g>
<g><path style="opacity:1" fill="#0065af" d="M 235.5,143.5 C 234.502,170.995 234.169,198.662 234.5,226.5C 227.833,226.5 221.167,226.5 214.5,226.5C 214.5,194.833 214.5,163.167 214.5,131.5C 215.633,127.081 218.3,123.915 222.5,122C 248.482,120.686 274.482,120.186 300.5,120.5C 287.746,80.2536 260.413,57.0869 218.5,51C 177.229,47.7188 146.062,63.8855 125,99.5C 106.227,138.142 110.227,174.142 137,207.5C 165.306,237.754 199.473,246.921 239.5,235C 258.582,227.138 274.249,214.971 286.5,198.5C 277.451,189.119 268.451,179.786 259.5,170.5C 286.995,169.502 314.662,169.169 342.5,169.5C 342.5,197.5 342.5,225.5 342.5,253.5C 333.833,245.167 325.167,236.833 316.5,228.5C 312.5,223.833 308.167,219.5 303.5,215.5C 302.855,214.188 301.855,213.188 300.5,212.5C 281.53,238.493 256.197,254.66 224.5,261C 221.854,261.497 219.187,261.664 216.5,261.5C 208.825,261.32 201.158,260.986 193.5,260.5C 156.631,254.24 128.965,234.907 110.5,202.5C 99.9993,182.83 94.9993,161.83 95.5,139.5C 97.0121,134.071 97.6787,128.404 97.5,122.5C 105.205,87.2449 124.538,60.4115 155.5,42C 194.696,23.0178 233.029,24.6845 270.5,47C 302.867,70.5649 319.867,102.398 321.5,142.5C 292.662,142.169 263.995,142.502 235.5,143.5 Z"/></g>
<g><path style="opacity:1" fill="#e3e2e2" d="M 662.5,31.5 C 683.262,29.2967 702.929,32.7967 721.5,42C 735.375,51.4791 737.208,62.9791 727,76.5C 724.651,79.0168 722.151,81.3501 719.5,83.5C 703.058,51.1772 677.391,40.3439 642.5,51C 621.494,61.0057 605.328,76.1723 594,96.5C 576.377,127.285 570.043,160.285 575,195.5C 581.483,227.989 601.15,245.656 634,248.5C 671.227,246.054 701.56,230.387 725,201.5C 729.063,211.422 728.063,220.755 722,229.5C 707.453,245.001 689.953,256.167 669.5,263C 643.889,272.497 617.889,273.831 591.5,267C 561.697,256.529 544.197,235.695 539,204.5C 532.856,138.858 556.689,87.3578 610.5,50C 626.778,40.5208 644.111,34.3542 662.5,31.5 Z"/></g>
<g><path style="opacity:1" fill="#7b7b7b" d="M 1193.5,37.5 C 1191.69,38.9179 1191.03,40.9179 1191.5,43.5C 1190.53,41.3926 1190.2,39.0593 1190.5,36.5C 1191.79,36.2627 1192.79,36.596 1193.5,37.5 Z"/></g>
<g><path style="opacity:1" fill="#0065af" d="M 207.5,71.5 C 226.908,73.6696 233.742,84.003 228,102.5C 220.641,112.796 211.141,115.296 199.5,110C 190.261,102.147 188.095,92.647 193,81.5C 196.664,76.314 201.498,72.9807 207.5,71.5 Z"/></g>
<g><path style="opacity:1" fill="#0067b2" d="M 139.5,121.5 C 158.503,121.333 177.503,121.5 196.5,122C 201.668,123.66 204.335,127.16 204.5,132.5C 204.5,163.833 204.5,195.167 204.5,226.5C 197.833,226.5 191.167,226.5 184.5,226.5C 184.5,208.5 184.5,190.5 184.5,172.5C 184.5,162.833 184.5,153.167 184.5,143.5C 169.676,142.504 154.676,142.171 139.5,142.5C 139.5,135.5 139.5,128.5 139.5,121.5 Z"/></g>
<g><path style="opacity:1" fill="#d07818" d="M 340.5,116.5 C 341.29,117.609 341.79,118.942 342,120.5C 342.721,127.823 343.221,135.156 343.5,142.5C 337.5,142.5 331.5,142.5 325.5,142.5C 325.5,139.167 325.5,135.833 325.5,132.5C 326.477,135.287 326.81,138.287 326.5,141.5C 331.833,141.5 337.167,141.5 342.5,141.5C 341.635,133.184 340.968,124.851 340.5,116.5 Z"/></g>
<g><path style="opacity:1" fill="#545454" d="M 797.5,130.5 C 794.663,132.402 791.329,133.069 787.5,132.5C 790.725,131.763 794.059,131.097 797.5,130.5 Z"/></g>
<g><path style="opacity:1" fill="#003a64" d="M 97.5,122.5 C 97.6787,128.404 97.0121,134.071 95.5,139.5C 95.216,133.583 95.8827,127.916 97.5,122.5 Z"/></g>
<g><path style="opacity:1" fill="#003258" d="M 139.5,121.5 C 139.5,128.5 139.5,135.5 139.5,142.5C 154.676,142.171 169.676,142.504 184.5,143.5C 169.167,143.5 153.833,143.5 138.5,143.5C 138.175,135.981 138.508,128.648 139.5,121.5 Z"/></g>
<g><path style="opacity:1" fill="#002541" d="M 342.5,253.5 C 342.5,225.5 342.5,197.5 342.5,169.5C 314.662,169.169 286.995,169.502 259.5,170.5C 258.957,170.44 258.624,170.107 258.5,169.5C 286.825,168.5 315.159,168.167 343.5,168.5C 343.831,197.005 343.498,225.338 342.5,253.5 Z"/></g>
<g><path style="opacity:1" fill="#002e50" d="M 214.5,131.5 C 214.5,163.167 214.5,194.833 214.5,226.5C 221.167,226.5 227.833,226.5 234.5,226.5C 234.169,198.662 234.502,170.995 235.5,143.5C 235.5,171.5 235.5,199.5 235.5,227.5C 228.167,227.5 220.833,227.5 213.5,227.5C 213.168,195.329 213.502,163.329 214.5,131.5 Z"/></g>
<g><path style="opacity:1" fill="#000204" d="M 315.5,185.5 C 318.287,186.477 321.287,186.81 324.5,186.5C 324.827,195.682 324.493,204.682 323.5,213.5C 314.855,204.521 306.188,195.521 297.5,186.5C 303.463,185.504 309.463,185.171 315.5,185.5 Z"/></g>
<g><path style="opacity:1" fill="#00345b" d="M 315.5,185.5 C 318.833,185.5 322.167,185.5 325.5,185.5C 325.832,195.19 325.498,204.856 324.5,214.5C 323.893,214.376 323.56,214.043 323.5,213.5C 324.493,204.682 324.827,195.682 324.5,186.5C 321.287,186.81 318.287,186.477 315.5,185.5 Z"/></g>
<g><path style="opacity:1" fill="#00375f" d="M 204.5,132.5 C 205.498,163.996 205.832,195.662 205.5,227.5C 198.167,227.5 190.833,227.5 183.5,227.5C 183.17,208.992 183.503,190.659 184.5,172.5C 184.5,190.5 184.5,208.5 184.5,226.5C 191.167,226.5 197.833,226.5 204.5,226.5C 204.5,195.167 204.5,163.833 204.5,132.5 Z"/></g>
<g><path style="opacity:1" fill="#00365e" d="M 193.5,260.5 C 201.158,260.986 208.825,261.32 216.5,261.5C 208.783,262.808 201.116,262.475 193.5,260.5 Z"/></g>
</svg>
