<?xml version="1.0" standalone="no"?>
<!DOCTYPE svg PUBLIC "-//W3C//DTD SVG 20010904//EN"
 "http://www.w3.org/TR/2001/REC-SVG-20010904/DTD/svg10.dtd">
<svg version="1.0" xmlns="http://www.w3.org/2000/svg"
 width="1870.000000pt" height="100.000000pt" viewBox="0 0 1870.000000 100.000000"
 preserveAspectRatio="xMidYMid meet">

<g transform="translate(0.000000,100.000000) scale(0.100000,-0.100000)"
fill="#000000" stroke="none">
<path d="M0 500 l0 -500 9350 0 9350 0 0 500 0 500 -9350 0 -9350 0 0 -500z
m7218 358 c6 -50 -60 -73 -119 -42 -35 17 -59 13 -59 -12 0 -26 -25 -10 -28
18 -6 49 60 73 118 43 32 -16 60 -11 60 12 0 25 25 8 28 -19z m-5059 -107
c-22 -40 -74 -61 -151 -61 -62 0 -68 -2 -73 -22 -24 -102 -82 -414 -78 -424 2
-6 -6 -14 -19 -18 -35 -9 -68 -7 -68 4 0 5 20 107 45 227 25 119 45 221 45
226 0 10 -126 3 -169 -9 -21 -6 -23 -5 -16 17 15 54 34 59 209 59 180 0 228 9
253 47 l17 26 10 -23 c7 -16 6 -29 -5 -49z m-864 -136 c129 -301 151 -337 179
-293 22 34 47 170 48 267 2 66 -2 94 -16 120 -20 38 -12 51 35 51 44 0 53 -21
46 -113 -13 -179 -74 -394 -120 -421 -46 -28 -105 47 -194 246 -32 70 -60 124
-64 120 -4 -4 -19 -73 -34 -153 -26 -137 -27 -149 -12 -178 19 -37 10 -44 -45
-39 -33 3 -33 3 -32 53 1 28 20 128 43 224 22 96 41 185 41 196 0 12 -11 39
-25 59 l-25 37 23 9 c12 5 33 8 46 7 21 -2 34 -24 106 -192z m4203 183 c5 -7
44 -94 86 -193 81 -190 134 -296 154 -303 18 -6 40 55 58 160 20 113 15 229
-10 257 -17 18 -17 20 3 30 38 21 68 14 80 -20 21 -60 -36 -382 -82 -464 -56
-99 -118 -42 -233 217 l-58 131 -29 -139 c-25 -124 -29 -188 -16 -234 3 -12
-5 -15 -36 -15 l-40 0 1 60 c1 33 20 138 42 233 37 157 40 177 28 205 -7 18
-21 38 -30 46 -16 14 -16 15 6 27 30 17 63 17 76 2z m1446 -10 c8 -13 51 -109
96 -215 88 -208 132 -282 155 -263 45 38 71 364 32 408 -18 20 -18 21 2 31 32
18 69 13 82 -10 24 -46 -29 -360 -78 -458 -36 -72 -65 -79 -112 -26 -32 36
-108 181 -151 288 -13 31 -26 57 -30 57 -7 0 -60 -265 -60 -301 0 -13 7 -34
15 -46 15 -21 14 -23 -9 -29 -13 -3 -35 -4 -47 -2 -22 3 -24 8 -24 53 1 28 20
134 44 237 l44 186 -26 46 c-23 42 -24 47 -9 56 29 16 61 11 76 -12z m1140 0
c8 -13 51 -109 96 -215 88 -208 132 -282 155 -263 45 38 71 364 32 408 -18 20
-18 21 2 31 32 18 69 13 82 -10 24 -46 -29 -360 -78 -458 -36 -72 -65 -79
-112 -26 -32 36 -108 181 -151 288 -13 31 -26 57 -30 57 -7 0 -60 -265 -60
-301 0 -13 7 -34 15 -46 15 -21 14 -23 -9 -29 -13 -3 -35 -4 -47 -2 -22 3 -24
8 -24 53 1 28 20 134 44 237 l44 186 -26 46 c-23 42 -24 47 -9 56 29 16 61 11
76 -12z m2206 -6 c0 -56 -64 -92 -163 -92 l-62 0 -43 -213 c-23 -116 -42 -219
-42 -228 0 -19 -20 -29 -56 -29 -16 0 -24 6 -24 18 0 10 20 116 44 236 l44
219 -77 -6 c-42 -3 -85 -9 -94 -13 -25 -9 -22 31 3 56 18 18 33 20 190 20 176
0 219 8 249 43 20 25 31 21 31 -11z m1078 16 c5 -7 44 -94 86 -193 81 -190
134 -296 154 -303 18 -6 40 55 58 160 20 113 15 229 -10 257 -17 18 -17 20 3
30 38 21 68 14 80 -20 21 -60 -36 -382 -82 -464 -56 -99 -118 -42 -233 217
l-58 131 -29 -139 c-25 -124 -29 -188 -16 -234 3 -12 -5 -15 -36 -15 l-40 0 1
60 c1 33 20 138 42 233 37 157 40 177 28 205 -7 18 -21 38 -30 46 -16 14 -16
15 6 27 30 17 63 17 76 2z m2767 -183 c129 -301 151 -337 179 -293 22 34 47
170 48 267 2 66 -2 94 -16 120 -20 38 -12 51 35 51 44 0 53 -21 46 -113 -13
-179 -74 -394 -120 -421 -46 -28 -105 47 -194 246 -32 70 -60 124 -64 120 -4
-4 -19 -73 -34 -153 -26 -137 -27 -149 -12 -178 19 -37 10 -44 -45 -39 -33 3
-33 3 -32 53 1 28 20 128 43 224 22 96 41 185 41 196 0 12 -11 39 -25 59 l-25
37 23 9 c12 5 33 8 46 7 21 -2 34 -24 106 -192z m2515 167 c0 -56 -64 -92
-163 -92 l-62 0 -43 -213 c-23 -116 -42 -219 -42 -228 0 -19 -20 -29 -56 -29
-16 0 -24 6 -24 18 0 10 20 116 44 236 l44 219 -77 -6 c-42 -3 -85 -9 -94 -13
-25 -9 -22 31 3 56 18 18 33 20 190 20 176 0 219 8 249 43 20 25 31 21 31 -11z
m-7997 -23 c32 -8 90 -10 169 -6 l120 5 -7 -26 c-3 -14 -45 -68 -93 -120 -146
-157 -261 -287 -262 -293 0 -4 55 -8 123 -11 164 -6 196 -24 197 -106 0 -13
-3 -22 -7 -20 -92 47 -176 62 -305 53 l-98 -6 0 35 c0 29 13 51 73 123 40 48
124 140 185 204 62 64 112 119 112 121 0 2 -24 1 -52 -3 -29 -4 -88 -8 -130
-8 -89 -1 -108 11 -108 66 0 34 1 35 18 20 9 -8 39 -21 65 -28z m9692 29 c3
-7 -15 -114 -40 -237 -31 -159 -41 -229 -34 -242 19 -37 125 -36 221 2 53 21
54 20 33 -20 -9 -18 -31 -35 -57 -46 -52 -21 -202 -31 -241 -16 -54 21 -55 40
-7 284 25 122 44 234 44 249 -1 17 5 29 15 31 33 9 62 7 66 -5z m-6178 -48
l12 -25 -59 -3 -59 -3 -11 -57 c-7 -31 -25 -120 -41 -196 -16 -77 -29 -145
-29 -153 0 -9 15 -13 53 -13 58 0 77 -12 77 -48 0 -19 -4 -22 -21 -17 -11 4
-74 1 -140 -6 -129 -14 -139 -12 -153 37 -6 20 -3 22 45 20 l52 -1 38 180 c21
99 40 195 44 213 l6 32 -44 0 c-45 0 -67 13 -67 41 0 11 7 15 23 12 12 -2 51
1 87 6 36 5 90 8 120 7 47 -1 56 -4 67 -26z m1700 0 l12 -25 -59 -3 -59 -3
-11 -57 c-7 -31 -25 -120 -41 -196 -16 -77 -29 -145 -29 -153 0 -9 15 -13 53
-13 58 0 77 -12 77 -48 0 -19 -4 -22 -21 -17 -11 4 -74 1 -140 -6 -129 -14
-139 -12 -153 37 -6 20 -3 22 45 20 l52 -1 38 180 c21 99 40 195 44 213 l6 32
-44 0 c-45 0 -67 13 -67 41 0 11 7 15 23 12 12 -2 51 1 87 6 36 5 90 8 120 7
47 -1 56 -4 67 -26z m1386 18 c53 1 97 1 97 -1 0 -2 -18 -42 -39 -88 -43 -92
-81 -216 -81 -266 0 -74 44 -120 101 -108 72 16 157 131 179 240 17 88 38 151
58 168 9 8 32 18 51 22 31 7 33 5 26 -11 -33 -80 -47 -125 -65 -212 -41 -201
-23 -253 74 -216 26 10 19 -22 -10 -45 -36 -29 -95 -28 -129 2 -20 17 -28 35
-32 70 l-6 47 -48 -50 c-27 -28 -64 -57 -84 -65 -103 -44 -195 19 -195 133 0
51 32 173 64 246 14 32 26 60 26 62 0 2 -17 4 -38 4 -42 0 -65 18 -75 58 -5
20 -3 22 11 15 9 -4 61 -7 115 -5z m2304 -18 l12 -25 -59 -3 -59 -3 -11 -57
c-7 -31 -25 -120 -41 -196 -16 -77 -29 -145 -29 -153 0 -9 15 -13 53 -13 58 0
77 -12 77 -48 0 -19 -4 -22 -21 -17 -11 4 -74 1 -140 -6 -129 -14 -139 -12
-153 37 -6 20 -3 22 45 20 l52 -1 38 180 c21 99 40 195 44 213 l6 32 -44 0
c-45 0 -67 13 -67 41 0 11 7 15 23 12 12 -2 51 1 87 6 36 5 90 8 120 7 47 -1
56 -4 67 -26z m-17043 6 c38 -16 52 -45 36 -76 -14 -27 -22 -25 -48 10 -52 70
-152 62 -226 -20 -53 -60 -80 -131 -81 -215 -1 -170 150 -216 306 -94 28 22
38 26 42 15 14 -36 -72 -114 -151 -136 -52 -14 -137 -12 -175 4 -44 18 -95 78
-103 122 -19 101 18 222 94 306 75 83 216 122 306 84z m528 -16 c-31 -29 -36
-30 -131 -30 l-98 0 -12 -62 c-7 -35 -15 -74 -18 -87 l-6 -24 79 5 c43 3 87 9
97 13 24 10 21 -8 -8 -39 -22 -24 -31 -26 -99 -26 l-74 0 -11 -47 c-6 -27 -12
-66 -14 -87 -2 -34 2 -42 23 -53 33 -17 93 -16 160 1 30 8 56 13 58 11 2 -2
-2 -13 -8 -25 -18 -33 -74 -51 -174 -57 -83 -5 -93 -3 -118 17 -33 25 -35 51
-13 150 20 93 21 92 -21 84 -34 -6 -35 -5 -26 13 14 26 32 40 57 44 15 3 22
20 36 87 16 82 16 82 -5 82 -12 0 -40 -9 -63 -20 -51 -23 -58 -8 -19 37 l24
28 179 6 c98 3 192 6 208 7 l30 1 -33 -29z m1515 4 c88 -65 54 -167 -78 -234
l-40 -21 32 -60 c32 -60 88 -119 113 -119 7 0 25 9 40 21 l26 20 0 -21 c0 -12
-15 -37 -34 -56 -68 -68 -137 -31 -207 114 -27 57 -39 72 -56 72 -27 0 -29 17
-7 48 11 16 25 22 50 22 70 0 134 56 134 116 0 50 -35 69 -125 68 -89 0 -177
-38 -234 -99 -43 -46 -51 -47 -51 -4 0 37 37 79 96 109 77 38 132 50 226 47
70 -2 92 -6 115 -23z m621 12 c133 -69 136 -265 7 -404 -70 -76 -139 -113
-221 -120 -81 -6 -140 15 -188 68 -114 127 -41 334 135 380 24 6 58 24 74 40
17 15 39 32 50 38 28 16 111 15 143 -2z m829 -2 c110 -37 159 -110 150 -220
-6 -77 -35 -130 -106 -198 -81 -75 -210 -126 -323 -126 -66 0 -88 16 -88 63
-1 25 51 314 66 375 2 7 19 12 39 12 44 0 44 0 3 -203 -33 -158 -33 -159 -13
-174 15 -11 35 -13 79 -9 115 12 217 81 252 172 21 56 15 144 -13 182 -92 125
-307 117 -438 -15 l-45 -46 0 39 c0 63 67 117 182 148 73 20 196 20 255 0z
m643 -3 c-17 -32 -30 -36 -140 -41 l-104 -5 -11 -55 c-6 -30 -15 -67 -18 -82
l-7 -28 57 0 c32 0 75 4 96 9 42 10 45 4 16 -33 -19 -24 -26 -26 -98 -26 l-78
0 -16 -77 c-8 -42 -12 -83 -10 -91 13 -33 94 -41 183 -18 30 8 57 12 59 10 3
-2 -4 -17 -16 -32 -23 -31 -90 -49 -185 -51 -118 -2 -139 26 -114 151 22 112
22 111 -14 103 -16 -4 -30 -3 -30 2 0 21 33 53 54 53 20 0 24 7 36 73 7 39 15
78 18 86 4 11 -3 12 -34 7 -21 -4 -51 -14 -66 -22 -15 -8 -28 -11 -28 -7 0 7
36 71 42 75 2 1 84 4 183 8 99 3 193 7 208 8 25 2 27 0 17 -17z m700 10 c0 -5
-12 -19 -26 -30 -23 -18 -41 -21 -125 -21 -110 0 -97 10 -119 -90 -17 -79 -16
-80 43 -80 28 0 70 5 92 10 22 5 41 7 43 6 1 -2 -9 -18 -23 -35 -26 -30 -30
-31 -104 -31 l-78 0 -11 -64 c-18 -97 -16 -115 14 -126 35 -14 88 -12 157 4
43 10 57 11 57 1 0 -24 -48 -55 -99 -65 -121 -23 -212 -6 -224 41 -5 20 13
142 29 192 6 18 3 19 -30 13 -41 -8 -42 -5 -20 29 9 14 26 25 39 25 20 0 24 8
34 63 7 34 15 73 18 86 6 23 4 23 -33 17 -21 -4 -50 -14 -65 -22 -24 -12 -27
-12 -22 4 2 9 13 28 23 42 19 25 21 25 202 31 101 3 193 6 206 7 12 1 22 -2
22 -7z m918 -7 c23 -16 28 -48 12 -74 -8 -12 -12 -11 -32 7 -50 47 -135 37
-164 -19 -23 -45 -11 -70 62 -135 104 -93 131 -153 100 -226 -29 -71 -110
-112 -207 -105 -96 7 -152 66 -119 125 21 38 36 38 46 2 26 -91 181 -103 222
-16 19 40 8 63 -78 152 -89 92 -100 110 -100 162 0 83 76 143 180 143 34 0 64
-6 78 -16z m522 7 c0 -5 -12 -19 -26 -30 -23 -18 -41 -21 -125 -21 l-97 0 -10
-47 c-6 -27 -14 -65 -18 -87 l-7 -39 79 5 c44 3 87 9 98 13 17 8 17 6 2 -22
-19 -38 -32 -43 -116 -43 l-69 0 -11 -37 c-5 -21 -13 -61 -16 -89 -6 -51 -6
-51 26 -63 51 -17 116 -13 198 13 23 8 23 7 8 -22 -20 -39 -59 -52 -171 -59
-82 -5 -92 -3 -117 17 -33 25 -36 68 -13 165 19 79 20 77 -20 69 l-36 -6 13
26 c7 17 22 29 39 33 25 5 29 12 43 75 22 99 22 102 -16 94 -17 -3 -44 -13
-60 -20 -37 -19 -39 1 -4 41 l24 28 179 5 c98 3 188 7 201 8 12 1 22 -2 22 -7z
m982 -106 c-4 -137 18 -278 53 -350 23 -47 24 -51 7 -63 -44 -33 -91 17 -111
118 -10 48 -16 60 -27 56 -9 -3 -56 -6 -105 -6 l-90 0 -24 -52 c-14 -29 -25
-67 -25 -84 0 -34 -13 -44 -56 -44 -20 0 -24 5 -24 33 0 17 16 61 35 96 l34
64 -37 -6 c-20 -3 -45 -8 -56 -12 -17 -8 -17 -6 -2 22 18 35 33 43 85 43 32 0
41 5 67 43 69 96 188 230 217 242 62 27 62 27 59 -100z m1603 -28 c1 -154 21
-274 57 -337 19 -32 19 -35 2 -47 -46 -34 -85 3 -107 103 -9 36 -17 67 -19 67
-2 1 -50 0 -108 -3 l-105 -5 -23 -55 c-12 -31 -20 -67 -17 -82 4 -24 1 -28
-30 -34 -66 -12 -72 22 -21 120 38 72 35 76 -32 57 -39 -11 -42 2 -10 36 16
17 33 23 64 23 39 0 44 3 85 58 88 118 175 215 204 228 60 27 60 28 60 -129z
m1325 124 c-17 -32 -30 -36 -140 -41 l-104 -5 -11 -55 c-6 -30 -15 -67 -18
-82 l-7 -28 57 0 c32 0 75 4 96 9 42 10 45 4 16 -33 -19 -24 -26 -26 -98 -26
l-78 0 -16 -77 c-8 -42 -12 -83 -10 -91 13 -33 94 -41 183 -18 30 8 57 12 59
10 3 -2 -4 -17 -16 -32 -23 -31 -90 -49 -185 -51 -118 -2 -139 26 -114 151 22
112 22 111 -14 103 -16 -4 -30 -3 -30 2 0 21 33 53 54 53 20 0 24 7 36 73 7
39 15 78 18 86 4 11 -3 12 -34 7 -21 -4 -51 -14 -66 -22 -15 -8 -28 -11 -28
-7 0 7 36 71 42 75 2 1 84 4 183 8 99 3 193 7 208 8 25 2 27 0 17 -17z m420 1
c39 -19 48 -47 26 -77 -15 -20 -16 -19 -41 12 -105 132 -305 -18 -305 -228 0
-84 22 -127 78 -151 68 -30 151 -10 230 57 36 30 42 31 42 6 0 -57 -115 -130
-217 -139 -150 -12 -235 78 -219 231 14 135 101 249 225 293 52 19 140 17 181
-4z m1494 4 c38 -16 52 -45 36 -76 -14 -27 -22 -25 -48 10 -52 70 -152 62
-226 -20 -53 -60 -80 -131 -81 -215 -1 -170 150 -216 306 -94 28 22 38 26 42
15 14 -36 -72 -114 -151 -136 -52 -14 -137 -12 -175 4 -44 18 -95 78 -103 122
-19 101 18 222 94 306 75 83 216 122 306 84z m491 -129 c1 -154 21 -274 57
-337 19 -32 19 -35 2 -47 -46 -34 -85 3 -107 103 -9 36 -17 67 -19 67 -2 1
-50 0 -108 -3 l-105 -5 -23 -55 c-12 -31 -20 -67 -17 -82 4 -24 1 -28 -30 -34
-66 -12 -72 22 -21 120 38 72 35 76 -32 57 -39 -11 -42 2 -10 36 16 17 33 23
64 23 39 0 44 3 85 58 88 118 175 215 204 228 60 27 60 28 60 -129z m1811 128
c60 -18 122 -67 140 -111 22 -53 18 -141 -11 -201 -59 -129 -241 -233 -406
-233 -61 0 -89 19 -89 60 0 15 13 92 29 171 16 79 31 160 33 179 3 32 6 35 37
38 18 2 37 0 42 -5 4 -4 -8 -86 -28 -182 -34 -167 -35 -175 -17 -188 38 -28
167 -3 240 48 115 79 144 234 61 319 -45 46 -91 63 -177 64 -93 0 -172 -32
-242 -102 l-48 -46 0 36 c0 91 138 166 311 167 41 1 98 -6 125 -14z m1138 3
c31 -13 41 -40 26 -67 -10 -20 -11 -20 -48 5 -68 47 -162 10 -162 -63 0 -29
10 -44 76 -106 87 -82 104 -110 104 -168 0 -59 -30 -102 -92 -133 -57 -28
-142 -35 -181 -15 -64 33 -86 91 -50 131 22 25 30 23 36 -11 17 -81 125 -105
197 -44 23 19 30 33 30 60 0 32 -9 45 -74 108 -119 116 -139 167 -93 236 43
65 161 100 231 67z m958 2 c75 -21 101 -103 56 -170 -13 -19 -49 -47 -80 -64
-32 -17 -58 -36 -58 -42 0 -20 78 -139 104 -159 l27 -20 40 22 c44 24 50 14
20 -31 -23 -34 -56 -55 -88 -56 -37 0 -98 64 -138 145 -31 62 -41 75 -61 75
-28 0 -28 1 -12 35 11 25 17 28 86 39 73 12 127 81 103 132 -38 85 -241 60
-346 -42 -45 -43 -65 -49 -65 -18 0 104 252 198 412 154z m973 -133 c1 -154
21 -274 57 -337 19 -32 19 -35 2 -47 -46 -34 -85 3 -107 103 -9 36 -17 67 -19
67 -2 1 -50 0 -108 -3 l-105 -5 -23 -55 c-12 -31 -20 -67 -17 -82 4 -24 1 -28
-30 -34 -66 -12 -72 22 -21 120 38 72 35 76 -32 57 -39 -11 -42 2 -10 36 16
17 33 23 64 23 39 0 44 3 85 58 88 118 175 215 204 228 60 27 60 28 60 -129z
m-15645 19 c0 -8 -18 -101 -40 -206 -22 -105 -40 -202 -40 -215 0 -24 -17 -35
-56 -35 -32 0 -32 9 16 240 21 106 37 198 33 203 -8 14 17 27 55 27 21 0 32
-5 32 -14z m14480 -9 c0 -13 -16 -102 -35 -198 -20 -96 -37 -187 -39 -202 -4
-34 -20 -47 -60 -47 -24 0 -28 3 -24 23 2 12 22 112 43 222 21 110 39 206 41
213 2 7 19 12 39 12 30 0 35 -3 35 -23z"/>
<path d="M3031 673 c-53 -26 -73 -67 -67 -134 5 -53 4 -57 -15 -52 -38 10 -49
73 -23 137 7 18 4 17 -33 -4 -113 -63 -121 -245 -14 -317 74 -50 155 -38 232
34 107 100 120 276 25 334 -38 23 -61 24 -105 2z"/>
<path d="M7634 609 c-57 -72 -104 -140 -104 -151 0 -11 142 -10 158 1 10 6 11
30 5 110 l-8 103 -51 -63z"/>
<path d="M9231 601 c-29 -37 -65 -86 -78 -109 l-25 -42 73 1 c109 1 106 -4 94
115 l-10 102 -54 -67z"/>
<path d="M12961 601 c-29 -37 -65 -86 -78 -109 l-25 -42 73 1 c109 1 106 -4
94 115 l-10 102 -54 -67z"/>
<path d="M17841 601 c-29 -37 -65 -86 -78 -109 l-25 -42 73 1 c109 1 106 -4
94 115 l-10 102 -54 -67z"/>
</g>
</svg>
