<?xml version="1.0" encoding="UTF-8"?>
<!DOCTYPE svg PUBLIC "-//W3C//DTD SVG 1.1//EN" "http://www.w3.org/Graphics/SVG/1.1/DTD/svg11.dtd">
<svg xmlns="http://www.w3.org/2000/svg" version="1.1" width="1686px" height="290px" style="shape-rendering:geometricPrecision; text-rendering:geometricPrecision; image-rendering:optimizeQuality; fill-rule:evenodd; clip-rule:evenodd" xmlns:xlink="http://www.w3.org/1999/xlink">
<g><path style="opacity:1" fill="#010000" d="M -0.5,-0.5 C 561.5,-0.5 1123.5,-0.5 1685.5,-0.5C 1685.5,96.1667 1685.5,192.833 1685.5,289.5C 1123.5,289.5 561.5,289.5 -0.5,289.5C -0.5,192.833 -0.5,96.1667 -0.5,-0.5 Z"/></g>
<g><path style="opacity:1" fill="#f28c1d" d="M 271.5,116.5 C 271.968,124.851 272.635,133.184 273.5,141.5C 268.167,141.5 262.833,141.5 257.5,141.5C 257.81,138.287 257.477,135.287 256.5,132.5C 246.496,71.6628 211.163,35.8295 150.5,25C 112.002,22.172 79.8355,35.0053 54,63.5C 18.3192,105.706 12.6526,151.706 37,201.5C 67.7336,254.776 113.234,274.609 173.5,261C 198.151,251.669 218.484,236.502 234.5,215.5C 239.167,219.5 243.5,223.833 247.5,228.5C 209.322,277.73 159.989,294.23 99.5,278C 45.5863,258.071 14.4197,219.571 6,162.5C 1.21767,103.236 23.3843,57.0689 72.5,24C 107.825,4.76015 144.825,1.09349 183.5,13C 224.128,28.9616 251.961,57.4616 267,98.5C 268.61,104.492 270.11,110.492 271.5,116.5 Z"/></g>
<g><path style="opacity:1" fill="#fbfbfb" d="M 1104.5,7.5 C 1109.45,12.8454 1111.28,19.1787 1110,26.5C 1105.85,40.6937 1096.68,50.1937 1082.5,55C 1077,56.9675 1071.33,58.3008 1065.5,59C 1047.2,60.3859 1028.87,60.8859 1010.5,60.5C 997.834,124.166 985.167,187.832 972.5,251.5C 972.846,255.063 973.513,258.563 974.5,262C 974.355,262.772 974.022,263.439 973.5,264C 963.739,269.024 953.406,271.358 942.5,271C 941.069,270.535 939.903,269.701 939,268.5C 938.333,264.167 938.333,259.833 939,255.5C 951.772,190.805 964.606,126.138 977.5,61.5C 949.21,60.082 921.21,62.082 893.5,67.5C 895.119,58.1267 899.119,49.9601 905.5,43C 910.628,40.7172 915.962,39.0505 921.5,38C 966.833,37.6667 1012.17,37.3333 1057.5,37C 1079.08,36.1925 1094.75,26.3591 1104.5,7.5 Z"/></g>
<g><path style="opacity:1" fill="#f28c1d" d="M 1677.5,119.5 C 1677.97,127.851 1678.64,136.184 1679.5,144.5C 1674.17,144.5 1668.83,144.5 1663.5,144.5C 1663.81,140.958 1663.48,137.625 1662.5,134.5C 1662.57,130.575 1661.9,126.909 1660.5,123.5C 1649.89,79.1102 1623.23,48.9435 1580.5,33C 1522.54,18.7363 1477.38,36.5696 1445,86.5C 1420.99,132.244 1423.32,176.577 1452,219.5C 1484.71,261.922 1527.21,276.755 1579.5,264C 1604.19,254.658 1624.52,239.491 1640.5,218.5C 1645.17,222.5 1649.5,226.833 1653.5,231.5C 1615.32,280.73 1565.99,297.23 1505.5,281C 1451.59,261.071 1420.42,222.571 1412,165.5C 1407.22,106.236 1429.38,60.0689 1478.5,27C 1513.82,7.76015 1550.82,4.09349 1589.5,16C 1630.13,31.9616 1657.96,60.4616 1673,101.5C 1674.61,107.492 1676.11,113.492 1677.5,119.5 Z"/></g>
<g><path style="opacity:1" fill="#fbfbfb" d="M 1122.5,43.5 C 1122.03,40.9179 1122.69,38.9179 1124.5,37.5C 1133.35,39.509 1142.35,40.009 1151.5,39C 1174.48,34.7799 1197.48,30.7799 1220.5,27C 1241.21,23.0085 1253.21,31.3418 1256.5,52C 1256.17,52.8333 1255.83,53.6667 1255.5,54.5C 1248.84,51.4174 1241.84,50.084 1234.5,50.5C 1224.48,51.2816 1214.48,52.2816 1204.5,53.5C 1192.29,117.195 1179.96,180.861 1167.5,244.5C 1179.85,243.72 1192.18,242.72 1204.5,241.5C 1222.96,241.696 1230.63,251.029 1227.5,269.5C 1219.29,266.577 1210.79,265.243 1202,265.5C 1177.76,267.676 1153.6,270.51 1129.5,274C 1121.5,274.667 1113.5,274.667 1105.5,274C 1101.36,273.349 1097.86,271.515 1095,268.5C 1090.8,261.716 1089.14,254.383 1090,246.5C 1094.52,249.117 1099.35,250.951 1104.5,252C 1114.2,252.22 1123.86,251.72 1133.5,250.5C 1146.04,186.484 1158.7,122.484 1171.5,58.5C 1159.89,60.2194 1148.22,60.7194 1136.5,60C 1128.05,57.7142 1123.38,52.2142 1122.5,43.5 Z"/></g>
<g><path style="opacity:1" fill="#fbfbfb" d="M 717.5,132.5 C 721.649,133.08 725.316,132.414 728.5,130.5C 732.782,105.756 737.449,81.0889 742.5,56.5C 721.249,55.2242 702.415,61.2242 686,74.5C 688.545,61.5824 695.045,51.0824 705.5,43C 708.089,41.8035 710.756,40.8035 713.5,40C 721.457,38.8911 729.457,38.2244 737.5,38C 767.833,37.6667 798.167,37.3333 828.5,37C 848.206,36.5421 867.539,33.7087 886.5,28.5C 886.833,28.8333 887.167,29.1667 887.5,29.5C 882.764,36.4597 877.431,42.9597 871.5,49C 861.887,54.095 851.554,56.4283 840.5,56C 818.826,56.1669 797.159,56.6669 775.5,57.5C 770.372,82.474 765.372,107.474 760.5,132.5C 778.855,132.749 797.189,132.249 815.5,131C 825.687,129.764 835.52,127.264 845,123.5C 841.505,131.937 836.338,139.437 829.5,146C 822.812,148.822 815.812,150.488 808.5,151C 791.157,151.167 773.824,151.667 756.5,152.5C 751.266,176.005 746.932,199.672 743.5,223.5C 743.2,232.072 746.867,238.238 754.5,242C 788.129,249.545 820.796,246.378 852.5,232.5C 848.18,252.938 835.18,263.771 813.5,265C 794.781,268.191 775.948,270.358 757,271.5C 715.053,271.319 700.053,250.985 712,210.5C 716.028,190.858 719.862,171.191 723.5,151.5C 712.261,150.787 701.761,153.12 692,158.5C 695.081,150.043 699.914,142.543 706.5,136C 709.734,133.533 713.401,132.367 717.5,132.5 Z"/></g>
<g><path style="opacity:1" fill="#0065af" d="M 166.5,143.5 C 165.502,170.995 165.169,198.662 165.5,226.5C 158.833,226.5 152.167,226.5 145.5,226.5C 145.5,194.833 145.5,163.167 145.5,131.5C 146.633,127.081 149.3,123.915 153.5,122C 179.482,120.686 205.482,120.186 231.5,120.5C 218.746,80.2536 191.413,57.0869 149.5,51C 108.229,47.7188 77.062,63.8855 56,99.5C 37.2268,138.142 41.2268,174.142 68,207.5C 96.3059,237.754 130.473,246.921 170.5,235C 189.582,227.138 205.249,214.971 217.5,198.5C 208.451,189.119 199.451,179.786 190.5,170.5C 217.995,169.502 245.662,169.169 273.5,169.5C 273.5,197.5 273.5,225.5 273.5,253.5C 264.833,245.167 256.167,236.833 247.5,228.5C 243.5,223.833 239.167,219.5 234.5,215.5C 233.855,214.188 232.855,213.188 231.5,212.5C 212.53,238.493 187.197,254.66 155.5,261C 152.854,261.497 150.187,261.664 147.5,261.5C 139.825,261.32 132.158,260.986 124.5,260.5C 87.6314,254.24 59.9647,234.907 41.5,202.5C 30.9993,182.83 25.9993,161.83 26.5,139.5C 28.0121,134.071 28.6787,128.404 28.5,122.5C 36.2051,87.2449 55.5384,60.4115 86.5,42C 125.696,23.0178 164.029,24.6845 201.5,47C 233.867,70.5649 250.867,102.398 252.5,142.5C 223.662,142.169 194.995,142.502 166.5,143.5 Z"/></g>
<g><path style="opacity:1" fill="#fbfbfb" d="M 593.5,31.5 C 614.262,29.2967 633.929,32.7967 652.5,42C 666.375,51.4791 668.208,62.9791 658,76.5C 655.651,79.0168 653.151,81.3501 650.5,83.5C 634.058,51.1772 608.391,40.3439 573.5,51C 552.494,61.0057 536.328,76.1723 525,96.5C 507.371,127.312 501.038,160.312 506,195.5C 512.552,228.224 532.385,245.891 565.5,248.5C 602.52,245.908 632.686,230.241 656,201.5C 660.063,211.422 659.063,220.755 653,229.5C 638.453,245.001 620.953,256.167 600.5,263C 574.884,272.442 548.884,273.775 522.5,267C 492.697,256.529 475.197,235.695 470,204.5C 463.491,138.698 487.324,87.198 541.5,50C 557.626,40.1267 574.96,33.96 593.5,31.5 Z"/></g>
<g><path style="opacity:1" fill="#0065af" d="M 1572.5,146.5 C 1571.5,173.995 1571.17,201.662 1571.5,229.5C 1564.83,229.5 1558.17,229.5 1551.5,229.5C 1551.5,197.833 1551.5,166.167 1551.5,134.5C 1552.63,130.081 1555.3,126.915 1559.5,125C 1585.48,123.686 1611.48,123.186 1637.5,123.5C 1624.75,83.2536 1597.41,60.0869 1555.5,54C 1514.26,50.7035 1483.09,66.8701 1462,102.5C 1443.23,141.142 1447.23,177.142 1474,210.5C 1502.31,240.754 1536.47,249.921 1576.5,238C 1595.58,230.138 1611.25,217.971 1623.5,201.5C 1614.45,192.119 1605.45,182.786 1596.5,173.5C 1623.99,172.502 1651.66,172.169 1679.5,172.5C 1679.83,200.338 1679.5,228.005 1678.5,255.5C 1670.17,247.5 1661.83,239.5 1653.5,231.5C 1649.5,226.833 1645.17,222.5 1640.5,218.5C 1639.85,217.188 1638.85,216.188 1637.5,215.5C 1610.77,251.198 1575.1,267.365 1530.5,264C 1477.25,252.421 1445.09,219.921 1434,166.5C 1433.56,158.49 1433.06,150.49 1432.5,142.5C 1434.01,137.071 1434.68,131.404 1434.5,125.5C 1442.21,90.2449 1461.54,63.4115 1492.5,45C 1531.7,26.0178 1570.03,27.6845 1607.5,50C 1639.87,73.5649 1656.87,105.398 1658.5,145.5C 1629.66,145.169 1601,145.502 1572.5,146.5 Z"/></g>
<g><path style="opacity:1" fill="#8a8a8a" d="M 1124.5,37.5 C 1122.69,38.9179 1122.03,40.9179 1122.5,43.5C 1121.53,41.3926 1121.2,39.0593 1121.5,36.5C 1122.79,36.2627 1123.79,36.596 1124.5,37.5 Z"/></g>
<g><path style="opacity:1" fill="#0065af" d="M 138.5,71.5 C 157.908,73.6696 164.742,84.003 159,102.5C 151.641,112.796 142.141,115.296 130.5,110C 121.261,102.147 119.095,92.647 124,81.5C 127.664,76.314 132.498,72.9807 138.5,71.5 Z"/></g>
<g><path style="opacity:1" fill="#0065af" d="M 1544.5,74.5 C 1563.89,76.6284 1570.72,86.9618 1565,105.5C 1557.64,115.796 1548.14,118.296 1536.5,113C 1527.26,105.147 1525.09,95.647 1530,84.5C 1533.66,79.314 1538.5,75.9807 1544.5,74.5 Z"/></g>
<g><path style="opacity:1" fill="#0067b2" d="M 70.5,121.5 C 89.5029,121.333 108.503,121.5 127.5,122C 132.668,123.66 135.335,127.16 135.5,132.5C 135.5,163.833 135.5,195.167 135.5,226.5C 128.833,226.5 122.167,226.5 115.5,226.5C 115.5,208.5 115.5,190.5 115.5,172.5C 115.5,162.833 115.5,153.167 115.5,143.5C 100.676,142.504 85.676,142.171 70.5,142.5C 70.5,135.5 70.5,128.5 70.5,121.5 Z"/></g>
<g><path style="opacity:1" fill="#0067b2" d="M 1476.5,124.5 C 1495.5,124.333 1514.5,124.5 1533.5,125C 1538.67,126.66 1541.34,130.16 1541.5,135.5C 1541.5,166.833 1541.5,198.167 1541.5,229.5C 1534.83,229.5 1528.17,229.5 1521.5,229.5C 1521.5,211.5 1521.5,193.5 1521.5,175.5C 1521.5,165.833 1521.5,156.167 1521.5,146.5C 1506.68,145.504 1491.68,145.171 1476.5,145.5C 1476.5,138.5 1476.5,131.5 1476.5,124.5 Z"/></g>
<g><path style="opacity:1" fill="#d07818" d="M 271.5,116.5 C 272.29,117.609 272.79,118.942 273,120.5C 273.721,127.823 274.221,135.156 274.5,142.5C 268.5,142.5 262.5,142.5 256.5,142.5C 256.5,139.167 256.5,135.833 256.5,132.5C 257.477,135.287 257.81,138.287 257.5,141.5C 262.833,141.5 268.167,141.5 273.5,141.5C 272.635,133.184 271.968,124.851 271.5,116.5 Z"/></g>
<g><path style="opacity:1" fill="#595959" d="M 728.5,130.5 C 725.316,132.414 721.649,133.08 717.5,132.5C 721.061,131.77 724.727,131.103 728.5,130.5 Z"/></g>
<g><path style="opacity:1" fill="#d07818" d="M 1677.5,119.5 C 1678.29,120.609 1678.79,121.942 1679,123.5C 1679.72,130.823 1680.22,138.156 1680.5,145.5C 1674.5,145.5 1668.5,145.5 1662.5,145.5C 1662.5,142.833 1662.5,140.167 1662.5,137.5C 1662.5,136.5 1662.5,135.5 1662.5,134.5C 1663.48,137.625 1663.81,140.958 1663.5,144.5C 1668.83,144.5 1674.17,144.5 1679.5,144.5C 1678.64,136.184 1677.97,127.851 1677.5,119.5 Z"/></g>
<g><path style="opacity:1" fill="#003a64" d="M 28.5,122.5 C 28.6787,128.404 28.0121,134.071 26.5,139.5C 26.216,133.583 26.8827,127.916 28.5,122.5 Z"/></g>
<g><path style="opacity:1" fill="#492b0c" d="M 1660.5,123.5 C 1661.9,126.909 1662.57,130.575 1662.5,134.5C 1662.5,135.5 1662.5,136.5 1662.5,137.5C 1660.79,133.119 1660.12,128.453 1660.5,123.5 Z"/></g>
<g><path style="opacity:1" fill="#003964" d="M 1434.5,125.5 C 1434.68,131.404 1434.01,137.071 1432.5,142.5C 1432.22,136.583 1432.88,130.916 1434.5,125.5 Z"/></g>
<g><path style="opacity:1" fill="#003258" d="M 70.5,121.5 C 70.5,128.5 70.5,135.5 70.5,142.5C 85.676,142.171 100.676,142.504 115.5,143.5C 100.167,143.5 84.8333,143.5 69.5,143.5C 69.175,135.981 69.5084,128.648 70.5,121.5 Z"/></g>
<g><path style="opacity:1" fill="#003258" d="M 1476.5,124.5 C 1476.5,131.5 1476.5,138.5 1476.5,145.5C 1491.68,145.171 1506.68,145.504 1521.5,146.5C 1506.17,146.5 1490.83,146.5 1475.5,146.5C 1475.18,138.981 1475.51,131.648 1476.5,124.5 Z"/></g>
<g><path style="opacity:1" fill="#002541" d="M 273.5,253.5 C 273.5,225.5 273.5,197.5 273.5,169.5C 245.662,169.169 217.995,169.502 190.5,170.5C 189.957,170.44 189.624,170.107 189.5,169.5C 217.825,168.5 246.159,168.167 274.5,168.5C 274.831,197.005 274.498,225.338 273.5,253.5 Z"/></g>
<g><path style="opacity:1" fill="#002e50" d="M 145.5,131.5 C 145.5,163.167 145.5,194.833 145.5,226.5C 152.167,226.5 158.833,226.5 165.5,226.5C 165.169,198.662 165.502,170.995 166.5,143.5C 166.5,171.5 166.5,199.5 166.5,227.5C 159.167,227.5 151.833,227.5 144.5,227.5C 144.168,195.329 144.502,163.329 145.5,131.5 Z"/></g>
<g><path style="opacity:1" fill="#002541" d="M 1678.5,255.5 C 1679.5,228.005 1679.83,200.338 1679.5,172.5C 1651.66,172.169 1623.99,172.502 1596.5,173.5C 1595.96,173.44 1595.62,173.107 1595.5,172.5C 1623.83,171.5 1652.16,171.167 1680.5,171.5C 1680.83,199.841 1680.5,228.175 1679.5,256.5C 1678.89,256.376 1678.56,256.043 1678.5,255.5 Z"/></g>
<g><path style="opacity:1" fill="#002e50" d="M 1551.5,134.5 C 1551.5,166.167 1551.5,197.833 1551.5,229.5C 1558.17,229.5 1564.83,229.5 1571.5,229.5C 1571.17,201.662 1571.5,173.995 1572.5,146.5C 1572.5,174.5 1572.5,202.5 1572.5,230.5C 1565.17,230.5 1557.83,230.5 1550.5,230.5C 1550.17,198.329 1550.5,166.329 1551.5,134.5 Z"/></g>
<g><path style="opacity:1" fill="#000204" d="M 246.5,185.5 C 249.287,186.477 252.287,186.81 255.5,186.5C 255.827,195.682 255.493,204.682 254.5,213.5C 245.855,204.521 237.188,195.521 228.5,186.5C 234.463,185.504 240.463,185.171 246.5,185.5 Z"/></g>
<g><path style="opacity:1" fill="#00345b" d="M 246.5,185.5 C 249.833,185.5 253.167,185.5 256.5,185.5C 256.832,195.19 256.498,204.856 255.5,214.5C 254.893,214.376 254.56,214.043 254.5,213.5C 255.493,204.682 255.827,195.682 255.5,186.5C 252.287,186.81 249.287,186.477 246.5,185.5 Z"/></g>
<g><path style="opacity:1" fill="#000204" d="M 1652.5,188.5 C 1655.29,189.477 1658.29,189.81 1661.5,189.5C 1661.83,198.682 1661.49,207.682 1660.5,216.5C 1651.85,207.521 1643.19,198.521 1634.5,189.5C 1640.46,188.504 1646.46,188.171 1652.5,188.5 Z"/></g>
<g><path style="opacity:1" fill="#00345a" d="M 1652.5,188.5 C 1655.83,188.5 1659.17,188.5 1662.5,188.5C 1662.83,198.19 1662.5,207.856 1661.5,217.5C 1660.89,217.376 1660.56,217.043 1660.5,216.5C 1661.49,207.682 1661.83,198.682 1661.5,189.5C 1658.29,189.81 1655.29,189.477 1652.5,188.5 Z"/></g>
<g><path style="opacity:1" fill="#003a64" d="M 135.5,132.5 C 136.498,163.996 136.832,195.662 136.5,227.5C 129.167,227.5 121.833,227.5 114.5,227.5C 114.17,208.992 114.503,190.659 115.5,172.5C 115.5,190.5 115.5,208.5 115.5,226.5C 122.167,226.5 128.833,226.5 135.5,226.5C 135.5,195.167 135.5,163.833 135.5,132.5 Z"/></g>
<g><path style="opacity:1" fill="#003a64" d="M 1541.5,135.5 C 1542.5,166.996 1542.83,198.662 1542.5,230.5C 1535.17,230.5 1527.83,230.5 1520.5,230.5C 1520.17,211.992 1520.5,193.659 1521.5,175.5C 1521.5,193.5 1521.5,211.5 1521.5,229.5C 1528.17,229.5 1534.83,229.5 1541.5,229.5C 1541.5,198.167 1541.5,166.833 1541.5,135.5 Z"/></g>
<g><path style="opacity:1" fill="#00365e" d="M 124.5,260.5 C 132.158,260.986 139.825,261.32 147.5,261.5C 139.783,262.808 132.116,262.475 124.5,260.5 Z"/></g>
</svg>
