<?xml version="1.0" encoding="utf-8"?>
<!-- Generator: Adobe Illustrator 27.0.0, SVG Export Plug-In . SVG Version: 6.00 Build 0)  -->
<svg version="1.1" id="Capa_1" xmlns="http://www.w3.org/2000/svg" xmlns:xlink="http://www.w3.org/1999/xlink" x="0px" y="0px"
	 viewBox="0 0 1200 1200" style="enable-background:new 0 0 1200 1200;" xml:space="preserve">
<style type="text/css">
	.st0{fill:#0059BA;}
</style>
<g>
	<path class="st0" d="M325.9,920.1l21.4,17.2l-33.3,83.2l-18.7-15l18.5-38.6c3.5-7.7,8.3-17.2,12.1-25.2l-0.4-0.3
		c-6.9,5.6-15,12.3-21.7,17.4L270,985.1l-18.1-14.5L325.9,920.1z M288.9,954.4l32.7,26.2l-11,13.7l-32.7-26.3L288.9,954.4z"/>
	<path class="st0" d="M352,994.4c13.5-25.4,38.7-30.5,57.8-20.3c10,5.3,15.7,14.3,18.2,22.5l-17.3,7.2c-2-5.2-4.5-9.6-9.6-12.3
		c-8.8-4.7-20.9-0.7-28.2,13.1c-7.6,14.2-5.3,25.6,4.5,30.8c5.8,3.1,12.1,2.6,17.2,0.8l3.8,18.2c-10.4,4-21.1,3.1-30.9-2.1
		C348.2,1042,338.2,1020.2,352,994.4z"/>
	<path class="st0" d="M425.2,1031.7c8.8-27.4,32.6-36.9,53.2-30.3c10.8,3.5,18,11.3,21.9,18.9l-15.7,10.2
		c-2.9-4.8-6.1-8.6-11.6-10.4c-9.5-3.1-20.7,3.1-25.4,17.9c-4.9,15.3-0.6,26.1,9.9,29.5c6.3,2,12.4,0.4,17.1-2.3l7,17.2
		c-9.5,5.8-20.2,6.8-30.7,3.4C429.9,1079.2,416.2,1059.6,425.2,1031.7z"/>
	<path class="st0" d="M518.1,1013.5l55,6.8l-2.3,18.9l-32.5-4l-1.7,13.4l27.8,3.4l-2.3,18.9l-27.8-3.4l-1.9,15.2l33.8,4.2l-2.3,18.9
		l-56.3-7L518.1,1013.5z"/>
	<path class="st0" d="M592.3,1096.1l12-16.3c6.3,4.5,14.2,7.5,20.5,7.2c6.8-0.4,9.6-2.8,9.4-6.6c-0.2-4.1-4.7-5.2-12.1-7.6
		l-10.9-3.9c-9.4-3.2-17.9-10.5-18.6-22.9c-0.8-14.6,11.7-27.4,30.4-28.4c9.7-0.6,20.8,2.5,29.1,9.8l-10.5,14.9
		c-6-3.8-11.2-5.6-17.5-5.2c-5.5,0.3-8.8,2.5-8.6,6.3c0.2,4.1,5.2,5.3,13.1,7.8l10.6,3.5c10.9,3.6,17.4,10.6,18.1,22.5
		c0.8,14.5-10.6,28.1-31.9,29.3C614.6,1107.2,602,1103.9,592.3,1096.1z"/>
	<path class="st0" d="M670.8,1013.6l22.2-4.6l17.4,84l-22.2,4.6L670.8,1013.6z"/>
	<path class="st0" d="M714.9,1004.2l28.9-10.9c16.8-6.3,31.9-7.3,37.9,8.5c2.6,6.9,1.6,16.3-3.6,21.1l0.2,0.5
		c8.5-0.7,16.9,2.9,20.9,13.5c6.2,16.5-5.4,29.1-22.7,35.6l-31.4,11.8L714.9,1004.2z M755.1,1024.9c6.9-2.6,8.9-7,7-12
		c-1.9-4.9-5.8-5.7-12.7-3.1l-7.2,2.7l5.7,15.1L755.1,1024.9z M768.9,1056.9c8.4-3.2,11.2-7.6,9-13.5c-2.2-5.9-7-6.7-15.4-3.5
		l-8.6,3.3l6.4,17L768.9,1056.9z"/>
	<path class="st0" d="M791.3,972.8l19.4-11.8l34.7,57l27.7-16.9l9.9,16.2l-47.1,28.7L791.3,972.8z"/>
	<path class="st0" d="M852.1,933.7l41.5-36.7l12.6,14.2l-24.5,21.7l8.9,10.1l20.9-18.5l12.6,14.2l-20.9,18.5l10.1,11.5l25.5-22.6
		l12.6,14.2l-42.5,37.6L852.1,933.7z"/>
</g>
<g>
	<path class="st0" d="M242.9,604.8c0-17.5,9.2-32.9,23-41.6c-32.4,5-62.4,19.3-86.9,41.6c24.5,22.3,54.6,36.6,86.9,41.6
		C252.1,637.7,242.9,622.3,242.9,604.8z"/>
	<path class="st0" d="M341.2,604.8c0,17.5-9.2,32.9-23,41.6c32.4-5,62.4-19.3,86.9-41.6c-24.5-22.3-54.6-36.6-86.9-41.6
		C332,571.8,341.2,587.2,341.2,604.8z"/>
	<path class="st0" d="M1046.6,429H147.1c-41.8,0-75.6,33.9-75.6,75.6v192.7c0,41.8,33.9,75.6,75.6,75.6h899.5
		c41.8,0,75.6-33.9,75.6-75.6V504.6C1122.2,462.9,1088.3,429,1046.6,429z M422.4,610.4c-34.8,34.8-81.1,54-130.3,54
		s-95.5-19.2-130.3-54c-1.5-1.5-2.3-3.5-2.3-5.7s0.8-4.2,2.3-5.7c34.8-34.8,81.1-54,130.3-54s95.5,19.2,130.3,54
		C425.5,602.2,425.5,607.3,422.4,610.4z M555,653.6c-1.6,1.6-3.6,2.3-5.7,2.3s-4.1-0.8-5.7-2.3c-3.1-3.1-3.1-8.2,0-11.3
		c20.7-20.7,20.7-54.4,0-75c-3.1-3.1-3.1-8.2,0-11.3c3.1-3.1,8.2-3.1,11.3,0C582,582.8,582,626.7,555,653.6z M586.9,675.4
		c-2,0-4.1-0.8-5.7-2.3c-3.1-3.1-3.1-8.2,0-11.3c15.2-15.2,23.6-35.4,23.6-56.9s-8.4-41.7-23.6-56.9c-3.1-3.1-3.1-8.2,0-11.3
		c3.1-3.1,8.2-3.1,11.3,0c18.2,18.2,28.3,42.5,28.3,68.3c0,25.8-10,50-28.3,68.3C591,674.6,589,675.4,586.9,675.4z M631.8,699
		c-1.6,1.6-3.6,2.3-5.7,2.3s-4.1-0.8-5.7-2.3c-3.1-3.1-3.1-8.2,0-11.3c22.2-22.2,34.4-51.6,34.4-82.9c0-31.3-12.2-60.8-34.4-82.9
		c-3.1-3.1-3.1-8.2,0-11.3c3.1-3.1,8.2-3.1,11.3,0c25.2,25.2,39,58.7,39,94.3C670.9,640.4,657,673.8,631.8,699z M1025.8,549
		c-7.7,28.1-25.1,93.9-25.5,95.3c-11.5,35.7-26.9,52.8-60,52.8c-18.5,0-34-2.3-46-14.4L837.6,626c-5.1-5.1-5.1-13.3,0-18.3
		c5.1-5.1,13.3-5.1,18.3,0l25.5,25.5c0,0,0-0.1,0-0.1c2.2-11.7,2.7-23.7,0.9-35.5l-9.9-66.3c-1.1-7,3.8-13.6,10.9-14.7l0.1,0
		c7-1.1,13.6,3.8,14.7,10.9c0,0,12.9,64.5,15.9,63c0,0,0.1,0,0.1,0c1.8-0.9,0.3-72.1,0.3-72.1c-0.3-7.1,5.3-13.1,12.4-13.4l0.1,0
		c7.1-0.3,13.1,5.3,13.4,12.4c0,0,4.4,67.1,7,67.4c0,0,0.1,0,0.1,0c2.8,0.3,10.6-56.9,10.6-56.9c0.7-7.1,7-12.3,14.1-11.6l0.1,0
		c7.1,0.7,12.3,7,11.6,14.1c0,0-5.6,67.4-4.4,68.4c0,0,0.1,0,0.1,0.1c2.6,2.2,21.6-56.3,21.6-56.3c1.8-6.9,8.9-11,15.8-9.2
		C1023.6,535,1027.7,542.1,1025.8,549z"/>
</g>
<g>
	<path class="st0" d="M298.3,297.1l0-20.2c7.8-0.1,15.9-2.4,20.7-6.5c5.3-4.4,6.1-8,3.6-10.9c-2.6-3.1-6.8-1.4-14.2,1.1l-11.1,3.4
		c-9.5,3.1-20.6,2.3-28.6-7.3c-9.4-11.2-6.9-28.9,7.4-40.9c7.5-6.3,18.2-10.3,29.2-9.4l0.4,18.2c-7.1,0.6-12.3,2.2-17.1,6.2
		c-4.3,3.5-5.6,7.3-3.2,10.2c2.6,3.1,7.3,1.1,15.2-1.5l10.6-3.5c10.9-3.6,20.3-1.8,27.9,7.3c9.3,11.1,8.3,28.8-8.2,42.5
		C322.8,292.6,310.7,297.5,298.3,297.1z"/>
	<path class="st0" d="M326.2,181l19.4-11.8l44.6,73.2l-19.4,11.8L326.2,181z"/>
	<path class="st0" d="M398.9,163.2L378,172l-7.4-17.5l62.7-26.5l7.4,17.5l-20.9,8.8l25.9,61.5l-20.9,8.8L398.9,163.2z"/>
	<path class="st0" d="M461.4,120.4l22-5.6l21.2,83.1l-22,5.6L461.4,120.4z"/>
	<path class="st0" d="M518.5,149.4c-2.3-28.1,12.4-45.2,36-47.2c23.7-2,41,12.6,43.4,40.6c2.3,28.1-12.3,46-36,48
		C538.2,192.7,520.8,177.5,518.5,149.4z M574.7,144.7c-1.3-15.5-8.3-23.9-18.6-23.1s-15.8,10.3-14.5,25.8
		c1.3,15.5,8.4,24.7,18.7,23.9C570.5,170.5,576,160.2,574.7,144.7z"/>
	<path class="st0" d="M661.7,103.3l22.6,5.4l-4,37.6c-1.2,8.9-2.2,17.9-3.4,26.9l0.5,0.1c3.6-8.4,7.3-16.9,10.8-25.1l16.6-34.6
		l18.5,4.4l-0.7,38.3c-0.4,8.7-1,18.1-1.6,27.3l0.5,0.1c3-8.6,6.1-17.3,9-25.5l13.3-35.4l21,5L731.2,208l-28-6.6l1.5-34.6
		c0.2-6.7,0.9-13.9,1.6-20.2l-0.5-0.1c-2.4,5.9-4.9,12.7-7.7,18.8l-14,31.7l-27.5-6.5L661.7,103.3z"/>
	<path class="st0" d="M792.6,140.8l49.8,24.3l-8.3,17.1l-29.4-14.4l-5.9,12.1l25.1,12.3l-8.3,17.1L790.4,197l-6.7,13.7l30.6,14.9
		l-8.3,17.1l-51-24.9L792.6,140.8z"/>
	<path class="st0" d="M873.3,183.8l24.7,18.5c14.3,10.8,23.3,23.1,13.1,36.6c-4.4,5.9-12.9,10.1-19.7,8.3l-0.3,0.4
		c5.1,6.8,6.6,15.8-0.2,24.9c-10.6,14.1-27.4,11.1-42.2,0l-26.8-20.1L873.3,183.8z M857.8,257.6c7.2,5.4,12.5,5.4,16.3,0.3
		s1.9-9.5-5.3-14.9l-7.4-5.5L850.4,252L857.8,257.6z M877.4,228.8c5.9,4.4,10.7,3.8,13.9-0.5c3.2-4.2,1.7-8-4.2-12.4l-6.1-4.6
		l-9.7,12.9L877.4,228.8z"/>
</g>
</svg>
